<?xml version="1.0" encoding="utf-8"?>
<!-- Generator: Adobe Illustrator 24.0.1, SVG Export Plug-In . SVG Version: 6.00 Build 0)  -->
<svg version="1.1" id="Livello_1" xmlns="http://www.w3.org/2000/svg" xmlns:xlink="http://www.w3.org/1999/xlink" x="0px" y="0px"
	 viewBox="0 0 252.28 167.24" style="enable-background:new 0 0 252.28 167.24;" xml:space="preserve">
<style type="text/css">
	.st0{fill:#6A6F82;}
	.st1{fill:#6A6F82;}
	.st2{fill:#6A6F82;}
	.st3{fill:#6A6F82;}
	.st4{fill:#6A6F82;}
	.st5{fill:#6A6F82;}
	.st6{fill:#6A6F82;}
	.st7{fill:#6A6F82;}
	.st8{fill:#6A6F82;}
	.st9{fill:#6A6F82;}
</style>
<g>
	<g>
		<g>
			<path class="st0" d="M34.54,274h0.73v6.91h-0.73V274z"/>
			<path class="st0" d="M39.39,274.63h-2.43V274h5.59v0.63h-2.43v6.28h-0.73V274.63z"/>
			<path class="st0" d="M48.22,279.06h-3.85l-0.83,1.85h-0.76l3.16-6.91h0.72l3.16,6.91h-0.77L48.22,279.06z M47.96,278.47
				l-1.66-3.71l-1.66,3.71H47.96z"/>
			<path class="st0" d="M51.49,274h0.73v6.28h3.87v0.63h-4.6V274z"/>
			<path class="st0" d="M57.83,274h0.73v6.91h-0.73V274z"/>
			<path class="st0" d="M65.67,279.06h-3.85l-0.83,1.85h-0.76l3.16-6.91h0.72l3.16,6.91H66.5L65.67,279.06z M65.4,278.47l-1.66-3.71
				l-1.66,3.71H65.4z"/>
			<path class="st0" d="M74.71,274v6.91h-0.6l-4.44-5.61v5.61h-0.73V274h0.6l4.45,5.61V274H74.71z"/>
			<path class="st0" d="M80.6,274h0.73v6.91H80.6V274z"/>
			<path class="st0" d="M89.88,274v6.91h-0.6l-4.44-5.61v5.61H84.1V274h0.6l4.45,5.61V274H89.88z"/>
			<path class="st0" d="M98.43,274v6.91h-0.6l-4.44-5.61v5.61h-0.73V274h0.6l4.45,5.61V274H98.43z"/>
			<path class="st0" d="M102.37,280.51c-0.56-0.31-0.99-0.73-1.3-1.26c-0.31-0.53-0.47-1.13-0.47-1.8c0-0.66,0.16-1.26,0.47-1.8
				c0.31-0.53,0.75-0.95,1.3-1.26c0.56-0.31,1.18-0.46,1.86-0.46c0.68,0,1.3,0.15,1.85,0.45c0.55,0.3,0.98,0.72,1.3,1.26
				c0.32,0.54,0.47,1.14,0.47,1.8c0,0.66-0.16,1.27-0.47,1.8c-0.32,0.54-0.75,0.96-1.3,1.26c-0.55,0.3-1.17,0.45-1.85,0.45
				C103.54,280.97,102.92,280.81,102.37,280.51z M105.71,279.94c0.44-0.25,0.79-0.59,1.04-1.03c0.25-0.44,0.38-0.93,0.38-1.47
				c0-0.54-0.13-1.03-0.38-1.47c-0.25-0.44-0.6-0.78-1.04-1.03c-0.44-0.25-0.93-0.37-1.48-0.37c-0.55,0-1.04,0.12-1.49,0.37
				c-0.44,0.25-0.79,0.59-1.05,1.03c-0.25,0.44-0.38,0.93-0.38,1.47c0,0.54,0.13,1.03,0.38,1.47c0.25,0.44,0.6,0.78,1.05,1.03
				c0.44,0.25,0.94,0.37,1.49,0.37C104.77,280.31,105.27,280.19,105.71,279.94z"/>
			<path class="st0" d="M115.55,274l-3.06,6.91h-0.72l-3.06-6.91h0.79l2.65,6l2.67-6H115.55z"/>
			<path class="st0" d="M121.2,279.06h-3.85l-0.83,1.85h-0.76l3.16-6.91h0.72l3.16,6.91h-0.77L121.2,279.06z M120.93,278.47
				l-1.66-3.71l-1.66,3.71H120.93z"/>
			<path class="st0" d="M125.47,274.63h-2.43V274h5.59v0.63h-2.43v6.28h-0.73V274.63z"/>
			<path class="st0" d="M130.31,274h0.73v6.91h-0.73V274z"/>
			<path class="st0" d="M134.98,280.51c-0.56-0.31-0.99-0.73-1.3-1.26c-0.31-0.53-0.47-1.13-0.47-1.8c0-0.66,0.16-1.26,0.47-1.8
				c0.31-0.53,0.75-0.95,1.3-1.26c0.56-0.31,1.18-0.46,1.86-0.46s1.3,0.15,1.85,0.45c0.55,0.3,0.98,0.72,1.3,1.26
				c0.32,0.54,0.47,1.14,0.47,1.8c0,0.66-0.16,1.27-0.47,1.8c-0.32,0.54-0.75,0.96-1.3,1.26c-0.55,0.3-1.17,0.45-1.85,0.45
				S135.54,280.81,134.98,280.51z M138.32,279.94c0.44-0.25,0.79-0.59,1.04-1.03c0.25-0.44,0.38-0.93,0.38-1.47
				c0-0.54-0.12-1.03-0.38-1.47c-0.25-0.44-0.6-0.78-1.04-1.03c-0.44-0.25-0.93-0.37-1.48-0.37s-1.04,0.12-1.49,0.37
				c-0.44,0.25-0.79,0.59-1.05,1.03c-0.25,0.44-0.38,0.93-0.38,1.47c0,0.54,0.13,1.03,0.38,1.47c0.25,0.44,0.6,0.78,1.05,1.03
				c0.44,0.25,0.94,0.37,1.49,0.37S137.88,280.19,138.32,279.94z"/>
			<path class="st0" d="M148.4,274v6.91h-0.6l-4.44-5.61v5.61h-0.73V274h0.6l4.45,5.61V274H148.4z"/>
			<path class="st0" d="M159.17,280.28v0.63h-4.89V274h4.74v0.63h-4.01v2.46h3.57v0.62h-3.57v2.57H159.17z"/>
			<path class="st0" d="M162.53,280.51c-0.55-0.3-0.98-0.72-1.29-1.26c-0.31-0.54-0.47-1.14-0.47-1.8c0-0.66,0.16-1.27,0.47-1.8
				s0.75-0.96,1.3-1.26c0.55-0.3,1.17-0.45,1.86-0.45c0.51,0,0.99,0.09,1.42,0.26s0.8,0.42,1.11,0.75l-0.46,0.46
				c-0.54-0.55-1.22-0.82-2.04-0.82c-0.55,0-1.04,0.13-1.49,0.38c-0.45,0.25-0.8,0.59-1.05,1.03c-0.25,0.43-0.38,0.92-0.38,1.46
				c0,0.54,0.13,1.03,0.38,1.46c0.25,0.43,0.6,0.78,1.05,1.03c0.45,0.25,0.94,0.38,1.49,0.38c0.83,0,1.51-0.28,2.04-0.83l0.46,0.46
				c-0.3,0.33-0.67,0.58-1.11,0.76c-0.44,0.17-0.91,0.26-1.43,0.26C163.69,280.97,163.08,280.82,162.53,280.51z"/>
			<path class="st0" d="M170.01,280.51c-0.56-0.31-0.99-0.73-1.3-1.26c-0.31-0.53-0.47-1.13-0.47-1.8c0-0.66,0.16-1.26,0.47-1.8
				c0.31-0.53,0.75-0.95,1.3-1.26c0.56-0.31,1.18-0.46,1.86-0.46s1.3,0.15,1.85,0.45c0.55,0.3,0.98,0.72,1.3,1.26
				c0.32,0.54,0.47,1.14,0.47,1.8c0,0.66-0.16,1.27-0.47,1.8c-0.32,0.54-0.75,0.96-1.3,1.26c-0.55,0.3-1.17,0.45-1.85,0.45
				S170.57,280.81,170.01,280.51z M173.35,279.94c0.44-0.25,0.79-0.59,1.04-1.03c0.25-0.44,0.38-0.93,0.38-1.47
				c0-0.54-0.12-1.03-0.38-1.47c-0.25-0.44-0.6-0.78-1.04-1.03c-0.44-0.25-0.93-0.37-1.48-0.37s-1.04,0.12-1.49,0.37
				c-0.44,0.25-0.79,0.59-1.05,1.03c-0.25,0.44-0.38,0.93-0.38,1.47c0,0.54,0.13,1.03,0.38,1.47c0.25,0.44,0.6,0.78,1.05,1.03
				c0.44,0.25,0.94,0.37,1.49,0.37S172.91,280.19,173.35,279.94z"/>
			<path class="st0" d="M178.09,280.72c-0.47-0.16-0.83-0.38-1.09-0.65l0.29-0.56c0.25,0.25,0.58,0.45,1,0.61
				c0.41,0.15,0.84,0.23,1.28,0.23c0.62,0,1.08-0.11,1.39-0.34c0.31-0.23,0.46-0.52,0.46-0.88c0-0.28-0.08-0.5-0.25-0.66
				c-0.17-0.16-0.37-0.29-0.62-0.38c-0.24-0.09-0.58-0.19-1.02-0.29c-0.52-0.13-0.93-0.26-1.24-0.38c-0.31-0.12-0.57-0.31-0.79-0.56
				c-0.22-0.25-0.33-0.59-0.33-1.02c0-0.35,0.09-0.67,0.28-0.95s0.47-0.51,0.85-0.69c0.38-0.17,0.86-0.26,1.42-0.26
				c0.39,0,0.78,0.05,1.16,0.16c0.38,0.11,0.71,0.26,0.98,0.45l-0.25,0.58c-0.29-0.19-0.6-0.33-0.93-0.43s-0.65-0.14-0.97-0.14
				c-0.61,0-1.06,0.12-1.37,0.35c-0.31,0.23-0.46,0.53-0.46,0.9c0,0.28,0.08,0.5,0.25,0.67c0.17,0.17,0.38,0.3,0.63,0.38
				c0.25,0.09,0.59,0.19,1.02,0.29c0.51,0.13,0.92,0.25,1.23,0.37c0.31,0.12,0.58,0.31,0.79,0.55c0.22,0.25,0.33,0.58,0.33,1
				c0,0.35-0.09,0.67-0.28,0.95c-0.19,0.29-0.48,0.51-0.86,0.68c-0.39,0.17-0.87,0.25-1.43,0.25
				C179.05,280.97,178.56,280.88,178.09,280.72z"/>
			<path class="st0" d="M186.48,278.52v2.39h-0.72v-2.39l-2.76-4.52h0.78l2.37,3.88l2.37-3.88h0.73L186.48,278.52z"/>
			<path class="st0" d="M191.18,280.72c-0.47-0.16-0.83-0.38-1.09-0.65l0.29-0.56c0.25,0.25,0.58,0.45,1,0.61
				c0.41,0.15,0.84,0.23,1.28,0.23c0.62,0,1.08-0.11,1.39-0.34c0.31-0.23,0.46-0.52,0.46-0.88c0-0.28-0.08-0.5-0.25-0.66
				c-0.17-0.16-0.37-0.29-0.62-0.38c-0.24-0.09-0.58-0.19-1.02-0.29c-0.52-0.13-0.93-0.26-1.24-0.38c-0.31-0.12-0.57-0.31-0.79-0.56
				c-0.22-0.25-0.33-0.59-0.33-1.02c0-0.35,0.09-0.67,0.28-0.95c0.18-0.29,0.47-0.51,0.85-0.69c0.38-0.17,0.86-0.26,1.42-0.26
				c0.39,0,0.78,0.05,1.16,0.16c0.38,0.11,0.71,0.26,0.98,0.45l-0.25,0.58c-0.29-0.19-0.6-0.33-0.93-0.43s-0.65-0.14-0.97-0.14
				c-0.61,0-1.06,0.12-1.37,0.35c-0.31,0.23-0.46,0.53-0.46,0.9c0,0.28,0.08,0.5,0.25,0.67c0.17,0.17,0.38,0.3,0.63,0.38
				c0.25,0.09,0.59,0.19,1.02,0.29c0.51,0.13,0.92,0.25,1.23,0.37c0.31,0.12,0.58,0.31,0.79,0.55c0.22,0.25,0.33,0.58,0.33,1
				c0,0.35-0.09,0.67-0.28,0.95c-0.19,0.29-0.48,0.51-0.86,0.68s-0.87,0.25-1.43,0.25C192.14,280.97,191.65,280.88,191.18,280.72z"
				/>
			<path class="st0" d="M198.59,274.63h-2.43V274h5.59v0.63h-2.43v6.28h-0.73V274.63z"/>
			<path class="st0" d="M208.33,280.28v0.63h-4.89V274h4.74v0.63h-4.01v2.46h3.57v0.62h-3.57v2.57H208.33z"/>
			<path class="st0" d="M217.75,274v6.91h-0.7v-5.53l-2.72,4.65h-0.35l-2.72-4.62v5.5h-0.7V274h0.6l3,5.12l2.97-5.12H217.75z"/>
		</g>
		<g>
			<g>
				<g>
					<linearGradient id="SVGID_1_" gradientUnits="userSpaceOnUse" x1="184.2363" y1="258.1463" x2="211.3084" y2="243.3635">
						<stop  offset="5.208333e-04" style="stop-color:#008CFF"/>
						<stop  offset="0.4957" style="stop-color:#00B8F8"/>
						<stop  offset="1" style="stop-color:#0BDD6A"/>
					</linearGradient>
					<path class="st1" d="M198.5,258.55c0.06-0.05,0.1-0.12,0.1-0.2c0-1.27,0-11.58,0-11.58c0-0.16-0.13-0.3-0.3-0.3h-5.81
						c-0.16,0-0.3,0.13-0.3,0.3v11.17c0,0.62-0.48,1.14-1.1,1.16c-0.65,0.02-1.18-0.49-1.18-1.14v-11.2c0-0.16-0.13-0.3-0.3-0.3
						h-5.81c-0.16,0-0.3,0.13-0.3,0.3v11.44c0,4.37,3.38,7.54,7.54,7.54l0,0c0.46,0,0.9-0.04,1.34-0.11
						c0.08-0.01,0.16-0.07,0.19-0.15C193.81,262.82,196,260.49,198.5,258.55z"/>
					<linearGradient id="SVGID_2_" gradientUnits="userSpaceOnUse" x1="188.0533" y1="265.1364" x2="215.1254" y2="250.3536">
						<stop  offset="5.208333e-04" style="stop-color:#008CFF"/>
						<stop  offset="0.4957" style="stop-color:#00B8F8"/>
						<stop  offset="1" style="stop-color:#0BDD6A"/>
					</linearGradient>
					<path class="st2" d="M210.87,246.46h-2.74h-6.11c-0.16,0-0.3,0.13-0.3,0.3v9.12c0,0.2,0.22,0.33,0.39,0.22
						c1.86-1.11,3.74-2.01,5.4-2.71l-0.99-1.4c-0.13-0.19-0.01-0.45,0.22-0.47l5.77-0.54c0.23-0.02,0.39,0.21,0.3,0.42l-2.42,5.26
						c-0.1,0.21-0.38,0.24-0.51,0.05l-1.06-1.46c-1.76,1.23-6.24,4.36-7.05,9.82c-0.02,0.16,0.1,0.3,0.26,0.3h5.81
						c0.16,0,0.3-0.13,0.3-0.3v-5.22h2.81c3.71,0,6.72-3.02,6.71-6.73C217.63,249.44,214.57,246.46,210.87,246.46z"/>
					<linearGradient id="SVGID_3_" gradientUnits="userSpaceOnUse" x1="188.5043" y1="265.9624" x2="215.5764" y2="251.1796">
						<stop  offset="5.208333e-04" style="stop-color:#0091D5"/>
						<stop  offset="0.4957" style="stop-color:#00A6E6"/>
						<stop  offset="1" style="stop-color:#009F5D"/>
					</linearGradient>
					<path class="st3" d="M209.41,254.54c0,0-0.01,0-0.02,0.01C209.43,254.57,209.41,254.54,209.41,254.54z"/>
				</g>
			</g>
			<g>
				<path class="st4" d="M34.72,245.25h5.66v20h-5.66V245.25z"/>
				<path class="st4" d="M54.83,264.62c-0.46,0.29-1.01,0.5-1.67,0.66c-0.66,0.15-1.36,0.23-2.1,0.23c-2.02,0-3.57-0.49-4.66-1.49
					c-1.09-0.99-1.63-2.47-1.63-4.43v-5.2h-2.26v-4.06h2.26v-4.03h5.43v4.03h3.54v4.06H50.2v5.14c0,0.55,0.15,0.99,0.44,1.3
					c0.3,0.31,0.69,0.47,1.19,0.47c0.63,0,1.18-0.16,1.66-0.49L54.83,264.62z"/>
				<path class="st4" d="M69.4,251.26c1.35,1.17,2.03,2.97,2.03,5.39v8.6h-5.06v-2c-0.78,1.5-2.3,2.26-4.57,2.26
					c-1.2,0-2.24-0.21-3.11-0.63c-0.88-0.42-1.54-0.99-1.99-1.7c-0.45-0.71-0.67-1.53-0.67-2.44c0-1.47,0.56-2.6,1.69-3.41
					c1.12-0.81,2.86-1.21,5.2-1.21H66c-0.1-1.64-1.19-2.46-3.29-2.46c-0.74,0-1.5,0.12-2.26,0.36c-0.76,0.24-1.41,0.57-1.94,0.99
					l-1.83-3.69c0.86-0.57,1.9-1.01,3.13-1.33c1.23-0.31,2.46-0.47,3.7-0.47C66.09,249.51,68.05,250.09,69.4,251.26z M64.97,261.62
					c0.48-0.3,0.82-0.75,1.03-1.34v-1.34h-2.34c-1.58,0-2.37,0.52-2.37,1.57c0,0.48,0.18,0.86,0.54,1.14
					c0.36,0.29,0.86,0.43,1.49,0.43C63.94,262.08,64.5,261.92,64.97,261.62z"/>
				<path class="st4" d="M73.71,244.05h5.43v21.2h-5.43V244.05z"/>
				<path class="st4" d="M81.51,249.76h5.43v15.49h-5.43V249.76z"/>
				<path class="st4" d="M102.37,251.26c1.35,1.17,2.03,2.97,2.03,5.39v8.6h-5.06v-2c-0.78,1.5-2.3,2.26-4.57,2.26
					c-1.2,0-2.24-0.21-3.11-0.63c-0.88-0.42-1.54-0.99-1.99-1.7c-0.45-0.71-0.67-1.53-0.67-2.44c0-1.47,0.56-2.6,1.69-3.41
					c1.12-0.81,2.86-1.21,5.2-1.21h3.09c-0.1-1.64-1.19-2.46-3.29-2.46c-0.74,0-1.5,0.12-2.26,0.36c-0.76,0.24-1.41,0.57-1.94,0.99
					l-1.83-3.69c0.86-0.57,1.9-1.01,3.13-1.33c1.23-0.31,2.46-0.47,3.7-0.47C99.05,249.51,101.02,250.09,102.37,251.26z
					 M97.94,261.62c0.48-0.3,0.82-0.75,1.03-1.34v-1.34h-2.34c-1.58,0-2.37,0.52-2.37,1.57c0,0.48,0.18,0.86,0.54,1.14
					c0.36,0.29,0.86,0.43,1.49,0.43C96.91,262.08,97.46,261.92,97.94,261.62z"/>
				<path class="st4" d="M110.4,265.05c-1.52-0.4-2.76-0.93-3.71-1.6l1.86-4.17c0.9,0.59,1.93,1.07,3.11,1.43
					c1.18,0.36,2.34,0.54,3.49,0.54c2.17,0,3.26-0.54,3.26-1.63c0-0.57-0.31-0.99-0.93-1.27c-0.62-0.28-1.61-0.57-2.99-0.87
					c-1.5-0.32-2.76-0.67-3.77-1.04c-1.01-0.37-1.88-0.97-2.6-1.79c-0.72-0.82-1.09-1.92-1.09-3.31c0-1.22,0.33-2.32,1-3.3
					c0.67-0.98,1.66-1.76,2.99-2.33c1.32-0.57,2.95-0.86,4.87-0.86c1.31,0,2.61,0.15,3.89,0.44c1.28,0.3,2.4,0.73,3.37,1.3
					l-1.74,4.2c-1.9-1.03-3.75-1.54-5.54-1.54c-1.12,0-1.94,0.17-2.46,0.5c-0.51,0.33-0.77,0.77-0.77,1.3c0,0.53,0.3,0.93,0.91,1.2
					c0.61,0.27,1.59,0.54,2.94,0.83c1.52,0.32,2.79,0.67,3.79,1.04c1,0.37,1.87,0.96,2.6,1.77c0.73,0.81,1.1,1.91,1.1,3.3
					c0,1.2-0.33,2.29-1,3.26c-0.67,0.97-1.67,1.75-3,2.33c-1.33,0.58-2.95,0.87-4.86,0.87C113.49,265.65,111.92,265.45,110.4,265.05
					z"/>
				<path class="st4" d="M137,264.62c-0.46,0.29-1.01,0.5-1.67,0.66c-0.66,0.15-1.36,0.23-2.1,0.23c-2.02,0-3.57-0.49-4.66-1.49
					c-1.09-0.99-1.63-2.47-1.63-4.43v-5.2h-2.26v-4.06h2.26v-4.03h5.43v4.03h3.54v4.06h-3.54v5.14c0,0.55,0.15,0.99,0.44,1.3
					c0.29,0.31,0.69,0.47,1.19,0.47c0.63,0,1.18-0.16,1.66-0.49L137,264.62z"/>
				<path class="st4" d="M151.57,251.26c1.35,1.17,2.03,2.97,2.03,5.39v8.6h-5.06v-2c-0.78,1.5-2.3,2.26-4.57,2.26
					c-1.2,0-2.24-0.21-3.11-0.63c-0.88-0.42-1.54-0.99-1.99-1.7c-0.45-0.71-0.67-1.53-0.67-2.44c0-1.47,0.56-2.6,1.69-3.41
					c1.12-0.81,2.86-1.21,5.2-1.21h3.09c-0.1-1.64-1.19-2.46-3.29-2.46c-0.74,0-1.5,0.12-2.26,0.36c-0.76,0.24-1.41,0.57-1.94,0.99
					l-1.83-3.69c0.86-0.57,1.9-1.01,3.13-1.33s2.46-0.47,3.7-0.47C148.25,249.51,150.21,250.09,151.57,251.26z M147.14,261.62
					c0.48-0.3,0.82-0.75,1.03-1.34v-1.34h-2.34c-1.58,0-2.37,0.52-2.37,1.57c0,0.48,0.18,0.86,0.54,1.14
					c0.36,0.29,0.86,0.43,1.49,0.43C146.11,262.08,146.66,261.92,147.14,261.62z"/>
				<path class="st4" d="M163.21,250.03c0.89-0.35,1.9-0.53,3.04-0.53v4.89c-0.5-0.06-0.9-0.09-1.23-0.09
					c-1.16,0-2.07,0.31-2.73,0.94c-0.66,0.63-0.99,1.59-0.99,2.89v7.11h-5.43v-15.49h5.17v1.86
					C161.6,250.92,162.32,250.39,163.21,250.03z"/>
				<path class="st4" d="M180.79,264.62c-0.46,0.29-1.01,0.5-1.67,0.66c-0.66,0.15-1.36,0.23-2.1,0.23c-2.02,0-3.57-0.49-4.66-1.49
					c-1.09-0.99-1.63-2.47-1.63-4.43v-5.2h-2.26v-4.06h2.26v-4.03h5.43v4.03h3.54v4.06h-3.54v5.14c0,0.55,0.15,0.99,0.44,1.3
					c0.3,0.31,0.69,0.47,1.19,0.47c0.63,0,1.18-0.16,1.66-0.49L180.79,264.62z"/>
			</g>
			<linearGradient id="SVGID_4_" gradientUnits="userSpaceOnUse" x1="80.913" y1="245.1632" x2="87.5414" y2="245.1632">
				<stop  offset="5.208333e-04" style="stop-color:#008CFF"/>
				<stop  offset="0.4957" style="stop-color:#00B8F8"/>
				<stop  offset="1" style="stop-color:#0BDD6A"/>
			</linearGradient>
			<path class="st5" d="M81.83,247.22c-0.61-0.55-0.91-1.24-0.91-2.06c0-0.82,0.3-1.5,0.91-2.06c0.61-0.55,1.41-0.83,2.4-0.83
				c0.99,0,1.79,0.26,2.4,0.79c0.61,0.52,0.91,1.2,0.91,2.01c0,0.86-0.3,1.57-0.91,2.13c-0.61,0.56-1.41,0.84-2.4,0.84
				C83.24,248.05,82.44,247.77,81.83,247.22z"/>
		</g>
	</g>
</g>
<g>
	<g>
		<g>
			<g>
				<g>
					<g>
						<linearGradient id="SVGID_5_" gradientUnits="userSpaceOnUse" x1="94.4673" y1="109.2728" x2="132.4443" y2="88.5353">
							<stop  offset="5.208333e-04" style="stop-color:#008CFF"/>
							<stop  offset="0.4957" style="stop-color:#00B8F8"/>
							<stop  offset="1" style="stop-color:#0BDD6A"/>
						</linearGradient>
						<path class="st6" d="M114.48,109.83c0.09-0.07,0.14-0.17,0.14-0.29c0.01-1.77,0.01-16.25,0.01-16.25
							c0-0.23-0.19-0.42-0.42-0.42h-8.15c-0.23,0-0.42,0.19-0.42,0.42v15.67c0,0.87-0.67,1.6-1.54,1.63
							c-0.91,0.03-1.65-0.69-1.65-1.59V93.3c0-0.23-0.19-0.42-0.42-0.42h-8.15c-0.23,0-0.42,0.19-0.42,0.42v16.05
							c0,6.13,4.74,10.58,10.58,10.58l0,0c0.64,0,1.27-0.05,1.88-0.15c0.12-0.02,0.22-0.1,0.27-0.21
							C107.9,115.83,110.96,112.56,114.48,109.83z"/>
						<linearGradient id="SVGID_6_" gradientUnits="userSpaceOnUse" x1="99.8218" y1="119.0786" x2="137.7988" y2="98.3411">
							<stop  offset="5.208333e-04" style="stop-color:#008CFF"/>
							<stop  offset="0.4957" style="stop-color:#00B8F8"/>
							<stop  offset="1" style="stop-color:#0BDD6A"/>
						</linearGradient>
						<path class="st7" d="M131.83,92.88h-3.85h-8.57c-0.23,0-0.42,0.19-0.42,0.42v12.8c0,0.28,0.31,0.46,0.55,0.31
							c2.61-1.55,5.24-2.82,7.58-3.8l-1.39-1.96c-0.19-0.26-0.02-0.63,0.3-0.66l8.09-0.75c0.32-0.03,0.55,0.3,0.42,0.59l-3.39,7.38
							c-0.13,0.29-0.54,0.33-0.72,0.07l-1.48-2.05c-2.47,1.73-8.76,6.11-9.89,13.78c-0.03,0.22,0.14,0.42,0.36,0.42h8.15
							c0.23,0,0.42-0.19,0.42-0.42v-7.32h3.95c5.21,0,9.43-4.23,9.41-9.44C141.32,97.05,137.03,92.88,131.83,92.88z"/>
						<linearGradient id="SVGID_7_" gradientUnits="userSpaceOnUse" x1="100.4545" y1="120.2373" x2="138.4315" y2="99.4998">
							<stop  offset="5.208333e-04" style="stop-color:#008CFF"/>
							<stop  offset="0.4957" style="stop-color:#00B8F8"/>
							<stop  offset="1" style="stop-color:#0BDD6A"/>
						</linearGradient>
						<path class="st8" d="M129.78,104.21c0,0-0.01,0.01-0.03,0.02C129.81,104.25,129.78,104.21,129.78,104.21z"/>
					</g>
				</g>
				<g>
					<path class="st4" d="M93.46,49.94h4.99v17.64h-4.99V49.94z"/>
					<path class="st4" d="M111.2,67.02c-0.4,0.25-0.89,0.45-1.47,0.58c-0.58,0.13-1.2,0.2-1.85,0.2c-1.78,0-3.15-0.44-4.11-1.31
						c-0.96-0.87-1.44-2.18-1.44-3.91V58h-1.99v-3.58h1.99v-3.55h4.79v3.55h3.12V58h-3.12v4.54c0,0.49,0.13,0.87,0.39,1.15
						c0.26,0.28,0.61,0.42,1.05,0.42c0.55,0,1.04-0.14,1.46-0.43L111.2,67.02z"/>
					<path class="st4" d="M124.05,55.24c1.19,1.03,1.79,2.62,1.79,4.75v7.59h-4.46v-1.76c-0.69,1.33-2.03,1.99-4.03,1.99
						c-1.06,0-1.97-0.19-2.75-0.55c-0.77-0.37-1.36-0.87-1.75-1.5c-0.39-0.63-0.59-1.35-0.59-2.15c0-1.29,0.5-2.3,1.49-3.01
						c0.99-0.71,2.52-1.07,4.59-1.07h2.72c-0.08-1.44-1.05-2.17-2.9-2.17c-0.66,0-1.32,0.11-1.99,0.31
						c-0.67,0.21-1.24,0.5-1.71,0.87l-1.61-3.25c0.76-0.5,1.68-0.89,2.76-1.17c1.08-0.28,2.17-0.42,3.26-0.42
						C121.13,53.69,122.86,54.21,124.05,55.24z M120.14,64.38c0.42-0.27,0.72-0.66,0.91-1.18v-1.18h-2.07
						c-1.39,0-2.09,0.46-2.09,1.39c0,0.42,0.16,0.76,0.48,1.01c0.32,0.25,0.76,0.38,1.31,0.38
						C119.24,64.78,119.72,64.65,120.14,64.38z"/>
					<path class="st4" d="M127.85,48.88h4.79v18.7h-4.79V48.88z"/>
					<path class="st4" d="M134.73,53.92h4.79v13.66h-4.79V53.92z"/>
					<path class="st4" d="M153.13,55.24c1.19,1.03,1.79,2.62,1.79,4.75v7.59h-4.46v-1.76c-0.69,1.33-2.03,1.99-4.03,1.99
						c-1.06,0-1.97-0.19-2.75-0.55c-0.77-0.37-1.36-0.87-1.75-1.5c-0.4-0.63-0.59-1.35-0.59-2.15c0-1.29,0.5-2.3,1.49-3.01
						c0.99-0.71,2.52-1.07,4.59-1.07h2.72c-0.08-1.44-1.05-2.17-2.9-2.17c-0.66,0-1.32,0.11-1.99,0.31
						c-0.67,0.21-1.24,0.5-1.71,0.87l-1.61-3.25c0.76-0.5,1.68-0.89,2.76-1.17c1.08-0.28,2.17-0.42,3.26-0.42
						C150.21,53.69,151.94,54.21,153.13,55.24z M149.22,64.38c0.42-0.27,0.72-0.66,0.91-1.18v-1.18h-2.07
						c-1.39,0-2.09,0.46-2.09,1.39c0,0.42,0.16,0.76,0.48,1.01c0.32,0.25,0.76,0.38,1.31,0.38S148.8,64.65,149.22,64.38z"/>
					<g>
						<path class="st4" d="M96.73,87.88c-1.34-0.35-2.44-0.82-3.28-1.41l1.64-3.68c0.79,0.52,1.71,0.94,2.75,1.26
							c1.04,0.32,2.07,0.48,3.07,0.48c1.92,0,2.87-0.48,2.87-1.44c0-0.5-0.27-0.88-0.82-1.12c-0.55-0.24-1.42-0.5-2.63-0.77
							c-1.33-0.29-2.44-0.59-3.33-0.92c-0.89-0.33-1.66-0.85-2.29-1.57c-0.64-0.72-0.96-1.7-0.96-2.92c0-1.07,0.29-2.05,0.88-2.91
							c0.59-0.86,1.47-1.55,2.63-2.05c1.17-0.5,2.6-0.76,4.3-0.76c1.16,0,2.3,0.13,3.43,0.39c1.13,0.26,2.12,0.64,2.97,1.15
							l-1.54,3.7c-1.68-0.91-3.31-1.36-4.89-1.36c-0.99,0-1.71,0.15-2.17,0.44c-0.45,0.29-0.68,0.68-0.68,1.15
							c0,0.47,0.27,0.82,0.81,1.06c0.54,0.24,1.4,0.48,2.6,0.73c1.34,0.29,2.46,0.59,3.34,0.92c0.88,0.33,1.65,0.85,2.29,1.56
							c0.65,0.71,0.97,1.68,0.97,2.91c0,1.06-0.29,2.02-0.88,2.87c-0.59,0.86-1.47,1.54-2.65,2.05c-1.18,0.51-2.6,0.77-4.28,0.77
							C99.46,88.41,98.08,88.24,96.73,87.88z"/>
						<path class="st4" d="M120.19,87.5c-0.4,0.25-0.89,0.45-1.47,0.58c-0.58,0.13-1.2,0.2-1.85,0.2c-1.78,0-3.15-0.44-4.11-1.31
							c-0.96-0.87-1.44-2.18-1.44-3.91v-4.59h-1.99V74.9h1.99v-3.55h4.79v3.55h3.12v3.58h-3.12v4.54c0,0.49,0.13,0.87,0.39,1.15
							c0.26,0.28,0.61,0.42,1.05,0.42c0.55,0,1.04-0.14,1.46-0.43L120.19,87.5z"/>
						<path class="st4" d="M133.05,75.72c1.19,1.03,1.79,2.62,1.79,4.75v7.59h-4.46V86.3c-0.69,1.33-2.03,1.99-4.03,1.99
							c-1.06,0-1.97-0.19-2.75-0.55c-0.77-0.37-1.36-0.87-1.75-1.5c-0.39-0.63-0.59-1.35-0.59-2.15c0-1.29,0.5-2.3,1.49-3.01
							c0.99-0.71,2.52-1.07,4.59-1.07h2.72c-0.08-1.44-1.05-2.17-2.9-2.17c-0.66,0-1.32,0.11-1.99,0.31
							c-0.67,0.21-1.24,0.5-1.71,0.87l-1.61-3.25c0.76-0.5,1.68-0.89,2.76-1.17c1.08-0.28,2.17-0.42,3.26-0.42
							C130.12,74.17,131.85,74.69,133.05,75.72z M129.14,84.86c0.42-0.27,0.72-0.66,0.91-1.18v-1.18h-2.07
							c-1.39,0-2.09,0.46-2.09,1.39c0,0.42,0.16,0.76,0.48,1.01c0.32,0.25,0.76,0.38,1.31,0.38
							C128.23,85.26,128.72,85.13,129.14,84.86z"/>
						<path class="st4" d="M143.32,74.64c0.78-0.31,1.68-0.47,2.68-0.47v4.31c-0.44-0.05-0.8-0.08-1.08-0.08
							c-1.03,0-1.83,0.28-2.41,0.83c-0.58,0.55-0.87,1.4-0.87,2.55v6.27h-4.79V74.4h4.56v1.64
							C141.9,75.42,142.53,74.95,143.32,74.64z"/>
						<path class="st4" d="M158.83,87.5c-0.4,0.25-0.89,0.45-1.47,0.58s-1.2,0.2-1.85,0.2c-1.78,0-3.15-0.44-4.11-1.31
							c-0.96-0.87-1.44-2.18-1.44-3.91v-4.59h-1.99V74.9h1.99v-3.55h4.79v3.55h3.13v3.58h-3.13v4.54c0,0.49,0.13,0.87,0.39,1.15
							c0.26,0.28,0.61,0.42,1.05,0.42c0.55,0,1.04-0.14,1.46-0.43L158.83,87.5z"/>
					</g>
				</g>
				<linearGradient id="SVGID_8_" gradientUnits="userSpaceOnUse" x1="134.2051" y1="49.8626" x2="140.0516" y2="49.8626">
					<stop  offset="5.208333e-04" style="stop-color:#008CFF"/>
					<stop  offset="0.4957" style="stop-color:#00B8F8"/>
					<stop  offset="1" style="stop-color:#0BDD6A"/>
				</linearGradient>
				<path class="st9" d="M135.01,51.68c-0.54-0.49-0.81-1.09-0.81-1.81c0-0.72,0.27-1.33,0.81-1.81c0.54-0.49,1.24-0.73,2.12-0.73
					c0.87,0,1.58,0.23,2.12,0.69c0.54,0.46,0.81,1.05,0.81,1.78c0,0.76-0.27,1.38-0.81,1.88c-0.54,0.5-1.24,0.74-2.12,0.74
					C136.25,52.41,135.55,52.16,135.01,51.68z"/>
			</g>
		</g>
	</g>
</g>
</svg>
